# xmcd
#
# Track frame offsets: 
#        150
#        17000
#        38422
#        60870
#        86295
#        106932
#        128512
#        146930
#        168827
#        187725
#        212085
#        234217
#        261477
#
# Disc length: 3962 seconds
#
# Revision: 0
# Processed by: cddbd v1.5.1PL0 Copyright (c) Steve Scherf et al.
# Submitted via: ExactAudioCopy v0.95a4
#
DISCID=990f780d
DTITLE=Jackie Greene - Sweet Somewhere Bound
DYEAR=2004
DGENRE=Blues
TTITLE0=About Cell Block #9
TTITLE1=Honey I Been Thinking About You
TTITLE2=Sweet Somewhere Bound
TTITLE3=Miss Madeline
TTITLE4=A Thing Called Rain
TTITLE5=Write a Letter Home
TTITLE6=I Don't Care About My Baby
TTITLE7=Alice on the Rooftop
TTITLE8=Seven Jealous Sisters
TTITLE9=Emily's in Heaven
TTITLE10=Sad to Say Goodbye
TTITLE11=Everything to Me
TTITLE12=Don't Mind Me, I'm Only Dying Slow
EXTD=
EXTT0=
EXTT1=
EXTT2=
EXTT3=
EXTT4=
EXTT5=
EXTT6=
EXTT7=
EXTT8=
EXTT9=
EXTT10=
EXTT11=
EXTT12=
PLAYORDER=
